<svg width="82" height="54" fill="#131923" xmlns="http://www.w3.org/2000/svg" viewBox="0 0 82 54"><path d="M0.267649 28.4907H7.18542L16.9429 44.8984H17.0033V28.9693H14.3061V28.4907H20.1709V28.9693H17.4737V53.0344H16.6796L3.49123 30.9365H3.43523V52.5511H6.12819V53.0344H0.267649V52.5511H2.9648V28.9693H0.267649V28.4907Z" fill="#131923"></path><path d="M19.7307 28.4907H37.2564V34.3872H36.8767C36.4667 32.8681 35.2065 28.9735 31.3353 28.9735H26.6745V39.6251H28.3145C31.1842 39.6251 32.1812 37.5927 32.7379 34.4885H33.122V45.2102H32.7379C32.2115 42.5231 31.3353 40.1083 28.6381 40.1083H26.6745V52.5511H31.4822C35.0855 52.5511 37.2865 49.4824 38.0763 45.4825H38.4561V53.0344H19.7264V52.5511H22.4237V28.9693H19.7307V28.4907Z" fill="#131923"></path><path d="M37.1095 28.4907H46.1075V28.9693H43.967L49.2409 47.1375H49.3008L52.3782 36.8637L50.0952 28.9693H48.5114V28.4907H57.272V28.9693H54.5487L59.8528 47.1727H59.913L65.3333 28.9693H62.813V28.4907H68.2075V28.9693H65.8341L58.299 54H57.4489L52.6412 37.6583H52.5809L47.6613 54H46.8109L39.5394 28.9693H37.1095V28.4907Z" fill="#131923"></path><path d="M24.9093 12.6451C24.9093 19.6525 19.4502 25.347 12.4677 25.347C5.51958 25.347 0 19.648 0 12.6451C0 5.69906 5.52385 0 12.4678 0C19.4503 0 24.9093 5.69906 24.9093 12.6451ZM0.880352 12.6451C2.64122 16.3639 6.76689 19.9861 12.4678 19.9861C18.1427 19.9861 22.2986 16.3595 24.0593 12.6451C22.2985 8.98771 18.1427 5.36094 12.4678 5.36094C6.76689 5.36094 2.64122 8.98771 0.880352 12.6451ZM18.8073 12.6406C18.8073 16.2013 15.9804 19.0376 12.4677 19.0376C8.9503 19.0376 6.09777 16.2013 6.09777 12.6406C6.09777 9.13688 8.9503 6.2742 12.4677 6.2742C15.9805 6.2742 18.8073 9.13688 18.8073 12.6406Z" fill="#131923"></path><path d="M36.5659 0.329366C34.5592 0.329366 32.0345 1.6862 30.1357 3.78912C28.4784 5.62882 26.502 8.84714 26.502 13.7383C26.502 20.0652 31.5856 24.9695 35.9573 24.9695C37.7181 24.9695 38.7582 24.4907 39.6731 24.065L39.6947 24.0562C40.411 23.727 41.0325 23.4416 41.8741 23.4416C42.5864 23.4416 43.2594 23.8498 43.6695 24.5305L43.8507 24.8334V15.1521H43.5873L43.57 15.2398C42.9918 18.9631 40.5879 24.5083 36.3373 24.5083C32.1252 24.5083 31.262 20.3066 31.262 14.0018C31.262 7.85037 31.8965 0.785955 36.8335 0.785955C41.2309 0.785955 43.1123 7.38493 43.5872 9.40467L43.6044 9.47925H43.8632V0.663069L43.6863 0.92636C43.2593 1.55431 42.655 1.6817 41.8223 1.6817C41.2655 1.6817 40.6785 1.4446 40.0055 1.1723L39.9751 1.1592C39.0301 0.77294 37.9641 0.329366 36.5659 0.329366Z" fill="#131923"></path><path d="M59.2658 11.7977C60.6856 11.3938 64.0429 10.2564 64.0429 6.56836C64.0429 4.75961 63.1671 3.236 61.5184 2.16465C60.008 1.1768 57.8978 0.63679 55.5802 0.63679H44.8647V1.11098H48.5891V24.1923H44.8647V24.6708H56.0978C61.3844 24.6708 64.9363 21.8478 64.9363 17.6504C64.9363 14.7701 63.0807 12.8557 59.2658 11.7977ZM56.4172 11.556H53.3575V1.11073H54.2814C58.42 1.11073 59.7105 1.8966 59.7105 6.12929C59.7105 10.6648 58.6013 11.4947 56.4215 11.4947M53.3575 12.0302H55.8997C58.1911 12.0302 60.4311 12.5439 60.4311 17.8524C60.4311 23.1869 58.9982 24.1881 55.7829 24.1881H53.3575V12.0302Z" fill="#131923"></path><path d="M68.8203 23.5468C69.5755 23.5468 70.2271 23.8015 70.9822 24.0956L71.0472 24.1219C72.0611 24.5216 73.2007 24.9694 74.9139 24.9694C78.1248 24.9694 82 21.413 82 17.0005C82 12.3682 78.5994 11.218 75.3109 10.1029C72.4539 9.13254 69.7609 8.21928 69.7609 5.01397C69.7609 3.74507 70.1368 0.790376 73.5934 0.790376C77.8525 0.790376 79.8725 7.63521 79.8725 9.32567V9.4267H80.1486L80.1573 0.434649L79.9757 0.676083C79.4666 1.36535 78.4484 1.41807 78.1462 1.41807C78.1159 1.41807 78.0901 1.41807 78.0683 1.41807H78.0383C77.6543 1.41807 77.0458 1.20734 76.5578 1.02297C75.7468 0.715544 74.7372 0.333703 73.5934 0.333703C69.6272 0.333703 67.1714 4.36417 67.1714 8.10064C67.1714 12.6535 70.5506 13.8918 73.8219 15.0905C76.5925 16.1003 79.2122 17.0531 79.2122 20.0606C79.2122 23.1164 76.9506 24.4864 74.7069 24.4864C69.2391 24.4864 67.2406 15.9862 67.2406 15.2703V15.2179H66.9691V24.5963L67.1416 24.39C67.7803 23.6083 68.2594 23.5468 68.8203 23.5468Z" fill="#131923"></path><path d="M68.7082 52.0114C69.4719 52.0114 70.1279 52.2746 70.8875 52.573L70.9524 52.5996C71.9752 53.0078 73.1233 53.4734 74.8537 53.4734C78.0903 53.4734 82 49.8203 82 45.548C82 40.5255 78.5691 39.3399 75.2505 38.1982C72.372 37.2017 69.653 36.2623 69.653 32.9693C69.653 31.6654 70.0289 28.6271 73.5159 28.6271C77.8137 28.6271 79.851 35.6607 79.851 37.3946V37.5001H80.1271L80.1358 28.2627L79.9547 28.5083C79.4409 29.2154 78.4138 29.2719 78.107 29.2719C78.0728 29.2719 78.0473 29.2719 78.0295 29.2719H77.9949C77.6068 29.2719 76.9941 29.0571 76.5022 28.8637C75.6821 28.5477 74.6681 28.157 73.5112 28.157C69.5104 28.157 67.0337 32.2972 67.0337 36.1348C67.0337 40.811 70.4427 42.084 73.74 43.3133C76.5367 44.3496 79.1732 45.3327 79.1732 48.4195C79.1732 51.559 76.8903 52.9683 74.6335 52.9683C69.1181 52.9683 67.1023 44.2351 67.1023 43.5019V43.4495H66.8267V53.0823L66.9991 52.8671C67.6555 52.077 68.1426 52.0114 68.7082 52.0114Z" fill="#131923"></path></svg>