<svg width="88" height="23" fill="#131923" xmlns="http://www.w3.org/2000/svg" viewBox="0 0 88 23"><path d="M8.4953 2.144H10.4225C11.5961 1.97134 12.7947 2.12314 13.888 2.58293C15.2597 3.40703 16.2545 4.73375 16.6604 6.28006C16.9478 7.09039 16.9478 7.09039 17.6409 6.8034H18.1819V0.388283H0.04277V1.51937H0.786592C1.10983 1.51713 1.42945 1.58724 1.72199 1.72455C2.01453 1.86186 2.27255 2.06287 2.4771 2.31282C3.17021 3.42702 3.28854 4.67628 3.28854 11.1758C3.28854 18.0805 3.13639 19.7687 2.4771 20.6297C2.31434 20.851 2.10361 21.0328 1.86065 21.1614C1.61769 21.29 1.34877 21.3622 1.07398 21.3725C0.04277 21.5582 0.04277 21.5413 0.04277 21.9971C-0.0142567 22.1495 -0.0142567 22.3174 0.04277 22.4698H11.4875C11.5632 22.3207 11.6027 22.1558 11.6027 21.9887C11.6027 21.8215 11.5632 21.6566 11.4875 21.5075C11.2103 21.4305 10.9278 21.3741 10.6422 21.3387C10.3333 21.302 10.028 21.2399 9.72937 21.153C9.30169 20.8412 8.9629 20.4234 8.74647 19.9408C8.53004 19.4582 8.44346 18.9275 8.4953 18.4013C8.32625 17.287 8.24172 15.2443 8.24172 13.5562V12.2225H8.91792C9.76039 12.1967 10.6024 12.2876 11.4199 12.4926C11.8115 12.7343 12.1449 13.0593 12.3962 13.4445C12.6475 13.8297 12.8106 14.2656 12.8737 14.721L13.0259 15.2443H14.0571V7.76567H13.1104L12.9582 8.49159C12.8942 8.9573 12.7217 9.40152 12.4545 9.78855C12.1873 10.1756 11.833 10.4946 11.4199 10.72C11.0198 10.8389 10.5983 10.8677 10.1858 10.8044H8.24172V8.98116C8.24172 7.09039 8.34315 3.10627 8.41077 2.48164L8.4953 2.144ZM87.6109 15.5313C86.8119 14.247 85.5655 13.303 84.1116 12.8809C82.997 12.5329 81.9667 11.9581 81.0856 11.1927C80.8873 11.0012 80.739 10.7642 80.6536 10.5023C80.5681 10.2404 80.5481 9.96158 80.5954 9.6902C80.5967 9.1579 80.8095 8.64787 81.187 8.27212C81.4429 8.00447 81.7668 7.81127 82.1241 7.71315C82.4814 7.61503 82.8587 7.61568 83.2156 7.71502C83.9547 7.92535 84.623 8.33139 85.1497 8.89013C85.6765 9.44886 86.0421 10.1395 86.2078 10.8888C86.4783 11.6485 86.5121 11.6485 87.0024 11.4459L87.3067 11.3277V7.12415L87.0869 7.02286C85.4226 6.43914 83.6572 6.19795 81.897 6.31382C80.3813 6.35218 78.9344 6.9542 77.8398 8.00201C77.3434 8.46608 76.9546 9.0329 76.7005 9.66278C76.4465 10.2927 76.3333 10.9704 76.3691 11.6485C76.3786 12.6853 76.7907 13.6778 77.5186 14.4171C78.3231 15.2072 79.3101 15.787 80.3925 16.1053C83.0128 17.1351 83.7735 17.7935 83.7735 18.9921C83.7847 19.4976 83.6235 19.9918 83.3163 20.3937C83.0091 20.7956 82.5742 21.0812 82.083 21.2036C81.4927 21.3331 80.8813 21.3331 80.2911 21.2036C79.5182 20.9041 78.8282 20.4246 78.2783 19.805C77.7285 19.1855 77.3347 18.4437 77.1298 17.6416L76.91 17.1013H76.6058C76.4603 17.1121 76.3176 17.1463 76.1831 17.2026H76.0141V21.9971H76.3015C77.4436 22.3765 78.6219 22.6367 79.8177 22.7737H81.5082C82.2414 22.8274 82.9783 22.7589 83.689 22.5711C84.5912 22.4048 85.4341 22.0057 86.134 21.4134C86.8339 20.8211 87.3664 20.0562 87.6786 19.1947C87.8803 18.7135 87.9838 18.197 87.9829 17.6753C88.0495 16.9405 87.9212 16.201 87.6109 15.5313ZM71.6864 6.8034C70.6734 6.37867 69.5819 6.17263 68.4835 6.19882C67.3852 6.225 66.3047 6.48282 65.3132 6.95534C64.3811 7.41061 63.5551 8.056 62.8883 8.84984C62.2214 9.64367 61.7287 10.5683 61.4419 11.5641C61.0763 12.6503 60.9213 13.7963 60.9855 14.9405C60.9734 15.563 61.0244 16.1852 61.1376 16.7975C61.4106 18.303 62.1385 19.6891 63.2233 20.7694C64.3082 21.8498 65.6982 22.5728 67.2065 22.8412C68.1888 22.9648 69.1827 22.9648 70.1649 22.8412C71.1842 22.6618 72.1597 22.2893 73.0388 21.7439C73.766 21.3368 74.3814 20.7569 74.8307 20.0557C74.8019 19.9456 74.7511 19.8426 74.6814 19.7526C74.6116 19.6627 74.5245 19.5878 74.425 19.5323C74.2321 19.6021 74.0499 19.6987 73.884 19.8193C73.0432 20.3727 72.0503 20.6501 71.044 20.6128C70.3761 20.6579 69.7064 20.554 69.0837 20.3087C68.4609 20.0635 67.9005 19.6829 67.4432 19.1947C67.0895 18.8666 66.7975 18.4778 66.5811 18.0467C66.0557 16.9972 65.7727 15.8435 65.7527 14.6704V14.012H75.1181V13.6743C75.1388 13.337 75.1388 12.9987 75.1181 12.6614C75.1148 11.4694 74.7955 10.2995 74.1927 9.27059C73.59 8.2417 72.7253 7.39047 71.6864 6.8034ZM66.9699 12.6445H65.7865V11.6485C66.1753 9.09933 67.1389 7.57997 68.3223 7.57997C69.5056 7.57997 70.0128 9.08245 70.2326 11.8342V12.6108H69.2182L66.9699 12.6445ZM42.6604 6.2463C42.0763 6.22367 41.4956 6.34545 40.9699 6.60082C39.8273 7.15492 38.9045 8.07652 38.3496 9.21751L38.1299 9.62267V6.2463H38.0453C37.8425 6.2463 31.5876 7.49556 31.3847 7.57997C31.1819 7.66437 31.2495 7.68126 31.2495 7.98513C31.2495 8.289 31.2495 8.33965 31.3847 8.35653L32.044 8.49159C32.2287 8.49611 32.4099 8.54254 32.5739 8.62736C32.7379 8.71219 32.8805 8.83317 32.9907 8.98116C33.4133 9.53826 33.4979 10.5174 33.4979 14.6872C33.5814 16.5644 33.5022 18.4453 33.2612 20.3089C33.2045 20.5899 33.0618 20.8464 32.8528 21.0429C32.6439 21.2395 32.379 21.3664 32.0948 21.4062L31.52 21.5244H31.3002V21.9971C31.2389 22.1545 31.2389 22.3292 31.3002 22.4867H40.7501V21.9971C40.7829 21.8355 40.7829 21.6691 40.7501 21.5075C40.1812 21.4854 39.6154 21.4119 39.0596 21.2881C38.757 21.13 38.5094 20.8841 38.3495 20.5827C38.1896 20.2814 38.1248 19.9387 38.1637 19.5999C38.0284 18.6207 37.9608 15.7508 37.9946 13.5562C38.0284 11.3615 37.9946 11.2265 38.1806 11.0745C38.7463 10.6414 39.4463 10.4203 40.1585 10.4499C40.8298 10.4645 41.4889 10.6319 42.0856 10.9395C42.2925 11.0542 42.5144 11.1394 42.7449 11.1927C42.7449 11.1927 44.4354 7.10727 44.4354 6.92157C44.2191 6.67053 43.9435 6.47731 43.6336 6.35941C43.3237 6.2415 42.9892 6.20262 42.6604 6.2463ZM31.2664 13.3367C31.2074 12.1303 30.8606 10.9555 30.2548 9.91009C29.6491 8.86468 28.8019 7.97897 27.784 7.32674C26.5742 6.67501 25.2283 6.31566 23.8543 6.27754C22.4803 6.23943 21.1165 6.52361 19.8724 7.10727C18.1134 8.03355 16.7853 9.60812 16.1702 11.4966C15.5348 13.6109 15.5348 15.8649 16.1702 17.9792C16.5033 19.1347 17.1258 20.1864 17.979 21.0348C19.0417 22.0703 20.4119 22.7337 21.8841 22.9256C22.8291 23.0045 23.7791 23.0045 24.7241 22.9256C25.0719 22.8728 25.4162 22.7995 25.7554 22.7061C27.1314 22.3217 28.3693 21.554 29.3243 20.4926C30.2793 19.4313 30.9119 18.1203 31.1481 16.7131C31.3168 15.5958 31.3565 14.463 31.2664 13.3367ZM24.2339 21.7776C22.5434 22.2841 21.2755 20.6465 20.8529 17.2026C20.6977 15.3996 20.6977 13.5866 20.8529 11.7836C21.191 9.01493 22.0532 7.61373 23.3886 7.61373C23.6581 7.59705 23.9276 7.64506 24.1747 7.75373C24.4217 7.8624 24.6391 8.02858 24.8087 8.23836C25.9413 9.36944 26.4992 11.6147 26.4992 14.9911C26.6398 16.9019 26.3391 18.8195 25.6201 20.5959C25.3027 21.114 24.8115 21.5028 24.2339 21.6932V21.7776ZM54.663 6.58393C54.186 6.52264 53.7031 6.52264 53.2261 6.58393C52.3104 6.58316 51.4053 6.7789 50.572 7.15792L50.0479 7.37738V3.71401C50.1395 2.4777 50.1395 1.23632 50.0479 0C49.8451 0 43.3873 1.23238 43.2859 1.28302C43.236 1.40766 43.236 1.54667 43.2859 1.67131C43.2859 2.02583 43.2859 2.00894 44.0466 2.17776C44.2602 2.2256 44.4654 2.30527 44.6552 2.41411C44.9852 2.72399 45.2048 3.133 45.2807 3.57896C45.4732 4.86371 45.5355 6.16456 45.4667 7.46179V22.2841L45.9231 22.3854C46.5993 22.5373 48.5096 22.8581 49.135 22.9256C50.3841 23.0248 51.639 23.0248 52.888 22.9256C54.2743 22.7842 55.5957 22.2677 56.7098 21.4318C57.824 20.5958 58.6886 19.4721 59.2105 18.1818C59.5216 17.3536 59.7371 16.4927 59.8529 15.6157C59.9535 14.4279 59.9138 13.2323 59.7345 12.0537C59.5532 10.7325 58.9692 9.49905 58.062 8.52058C57.1548 7.54211 55.9681 6.86599 54.663 6.58393ZM50.2339 21.4906C50.2339 21.2712 50.0648 13.8769 50.0986 10.9226V8.60976L50.5889 8.49159C50.9197 8.44426 51.2555 8.44426 51.5863 8.49159C51.9521 8.45444 52.3201 8.53742 52.6344 8.72793C53.2657 9.16304 53.79 9.7355 54.1677 10.4022C54.5454 11.0689 54.7668 11.8125 54.8151 12.577C54.9383 13.8063 54.9383 15.0448 54.8151 16.2741C54.714 18.0608 54.0246 19.7641 52.8542 21.1192C52.522 21.4343 52.1048 21.6456 51.6539 21.727C51.3127 21.7862 50.9639 21.7862 50.6227 21.727C50.3015 21.727 50.3015 21.6257 50.3015 21.4906H50.2339Z"></path></svg>