<svg width="88" height="38" viewBox="0 0 88 38" fill="#131923" xmlns="http://www.w3.org/2000/svg"><path fill-rule="evenodd" clip-rule="evenodd" d="M60.2604 33.0821C60.4646 33.7473 60.4646 34.4578 60.2604 35.1231C60.1845 35.354 60.0569 35.5649 59.8874 35.7401C59.7569 35.8826 59.5925 35.9904 59.4091 36.0533C59.1002 36.1651 58.7615 36.1651 58.4526 36.0533C58.2692 35.9904 58.1048 35.8826 57.9743 35.7401C57.8115 35.5599 57.6849 35.3504 57.6013 35.1231C57.3972 34.4578 57.3972 33.7473 57.6013 33.0821C57.6871 32.8558 57.8135 32.6467 57.9743 32.4651C58.1075 32.3257 58.2711 32.2185 58.4526 32.1518C58.7615 32.0401 59.1002 32.0401 59.4091 32.1518C59.5906 32.2185 59.7543 32.3257 59.8874 32.4651C60.0547 32.642 60.1819 32.8524 60.2604 33.0821ZM31.8806 18.843V8.10678C31.8678 6.87123 30.8947 5.85573 29.652 5.78106C28.4036 5.83732 27.4256 6.86673 27.4424 8.10678V18.843C27.4373 19.4297 27.6672 19.9943 28.0816 20.4126C28.496 20.831 29.0609 21.0688 29.652 21.0738C30.8801 21.0688 31.879 20.0903 31.8998 18.8715L31.8806 18.843ZM71.4708 32.1328H70.409V33.6042H71.6143C71.7288 33.6131 71.844 33.6131 71.9586 33.6042C72.0723 33.5943 72.1828 33.562 72.2838 33.5093C72.3838 33.4541 72.4691 33.376 72.5325 33.2815C72.7217 32.9721 72.6614 32.5728 72.389 32.3322C72.1141 32.1849 71.8002 32.1253 71.4899 32.1613L71.4708 32.1328ZM6.75299 30.3767H4.57214V34.3636L2.37216 30.3767H0V37.7905H2.19998V33.7561L4.49562 37.8095H6.73386L6.75299 30.3767ZM7.65212 18.226H15.1703V10.8692H7.70951V7.35686H16.8729L16.3564 0H0V26.9593H7.65212V18.226ZM18.6616 35.9109H14.6634V34.9617H18.1738V33.2245H14.6634V32.2752H18.5468V30.3767H12.3582V37.7905H18.6616V35.9109ZM29.652 26.5796C36.8698 26.5066 42.6626 20.6429 42.5936 13.4797C42.7216 8.8061 40.2824 4.43214 36.2241 2.05792C32.1658 -0.316306 27.1285 -0.316306 23.0702 2.05792C19.0119 4.43214 16.5727 8.8061 16.7007 13.4797C16.6676 16.9213 18.0135 20.235 20.4424 22.6918C22.8712 25.1485 26.184 26.547 29.652 26.5796ZM33.7363 30.3767H31.4119L30.4554 35.0186L29.585 30.3767H27.5476L26.6485 34.9617L25.7207 30.3767H23.4537L25.4911 37.7905H27.7389L28.5233 33.272L29.3363 37.7905H31.565L33.7363 30.3767ZM50.6953 30.3767H48.1701L46.8692 33.1296L45.6257 30.3767H43.0432L45.7118 35.1231V37.8475H48.017V35.1231L50.6953 30.3767ZM62.7378 34.0883C62.7425 33.5538 62.6485 33.023 62.4604 32.522C62.2898 32.0759 62.0295 31.6689 61.6952 31.326C61.3587 30.9761 60.9511 30.701 60.4995 30.5191C60.0087 30.3171 59.4813 30.2169 58.95 30.2248C58.4185 30.215 57.8907 30.3152 57.4004 30.5191C56.9447 30.6985 56.5336 30.9738 56.1952 31.326C55.8576 31.6773 55.5971 32.0942 55.43 32.5505C55.0601 33.5592 55.0601 34.665 55.43 35.6736C55.5993 36.1317 55.8595 36.5513 56.1952 36.9077C56.5367 37.2537 56.9472 37.5253 57.4004 37.7051C57.8907 37.9089 58.4185 38.0092 58.95 37.9993C59.4813 38.0072 60.0087 37.9071 60.4995 37.7051C60.9487 37.523 61.3556 37.2516 61.6952 36.9077C62.0309 36.5513 62.2911 36.1317 62.4604 35.6736C62.6489 35.1728 62.7429 34.6419 62.7378 34.1073V34.0883ZM63.2543 26.8834L55.0761 12.9101L62.5082 0H54.3205L50.9153 5.80954L47.5866 0H39.1023L46.6875 13.005L38.6623 26.9119H46.8692L50.8005 20.0961L54.77 26.9024L63.2543 26.8834ZM75.1629 37.8095C75.1058 37.706 75.067 37.5937 75.0481 37.4772C75.0481 37.3349 74.9908 37.183 74.9716 37.0311C74.9525 36.8792 74.9716 36.7178 74.9716 36.5754C74.978 36.4585 74.978 36.3412 74.9716 36.2242C74.9423 35.8065 74.818 35.4008 74.6081 35.0376C74.4437 34.7342 74.1758 34.4987 73.8525 34.3731C74.038 34.3078 74.2075 34.2043 74.3499 34.0694C74.4933 33.9424 74.6131 33.7914 74.7038 33.6232C74.8836 33.2804 74.9755 32.899 74.9716 32.5126C74.9822 32.1857 74.9168 31.8609 74.7803 31.5633C74.651 31.3067 74.4685 31.0803 74.2447 30.8988C74.0121 30.7216 73.7498 30.5866 73.4699 30.5001C73.1604 30.4049 72.8373 30.36 72.5134 30.3672H68.1134V37.781H70.409V35.2275H71.6429C71.8298 35.2157 72.0161 35.2586 72.1786 35.3509C72.3058 35.4331 72.4083 35.5479 72.4751 35.6831C72.5442 35.8309 72.5925 35.9874 72.6186 36.1483L72.6759 36.6704C72.6759 36.8602 72.6759 37.0596 72.7333 37.2494C72.7632 37.4393 72.808 37.6265 72.8672 37.8095H75.1629ZM87.9898 37.8095L84.8333 33.291L87.5498 30.4431H84.6802L82.6237 32.9967V30.3767H80.3472V37.7905H82.6524V35.6167L83.2933 34.9237L85.1394 37.7715L87.9898 37.8095ZM87.9898 16.7641C87.9898 14.0587 85.675 8.72381 80.089 8.02135C78.1565 7.66813 76.1703 7.72963 74.2638 8.20171C74.5125 7.25244 74.7803 6.30316 74.8855 5.91396H86.8515L87.8846 0H69.2899L65.3204 15.4257H71.9012L72.0351 15.1789C73.0499 13.5998 74.8479 12.6912 76.7316 12.8057C80.1846 12.8057 81.7437 15.3023 81.7437 17.0679C81.6457 19.551 79.5798 21.5088 77.0759 21.4915C73.6421 21.4915 72.016 19.4221 71.5951 18.207L71.4708 17.8463L65.263 18.6247L65.3491 19.1088C65.678 20.5532 66.3577 21.8958 67.3291 23.0198C68.8021 24.7855 71.6716 26.8929 76.8942 26.8929C81.2655 26.8929 84.422 25.5164 86.268 22.792C87.4214 20.9916 88.0228 18.8974 87.9993 16.7641H87.9898Z"></path></svg>