<svg width="76" height="60" fill="#131923" viewBox="0 0 76 60" xmlns="http://www.w3.org/2000/svg"><path d="M4.78875 0.0162217C2.73332 0.148683 1.5088 0.546065 0.954857 1.27809C0.10936 2.3796 -0.0947252 3.87153 0.0364726 8.02662C0.116649 10.7525 0.174959 11.1778 0.612285 12.0353C1.01317 12.8301 2.2887 13.7991 4.42431 14.9425C4.92724 15.2074 5.70713 15.6257 6.15175 15.8627C6.60365 16.1067 7.05556 16.3926 7.15031 16.5041C7.46373 16.8527 7.50017 17.2571 7.47101 19.6344C7.43457 21.9838 7.40542 22.2069 7.06284 22.5694C6.87334 22.7646 6.85876 22.7716 6.70569 22.667C6.61823 22.6043 6.48703 22.3951 6.41414 22.193C6.3121 21.8792 6.29023 21.447 6.26108 19.0906L6.23921 16.3577H0.0510501V19.8993C0.0510501 24.1241 0.123938 24.8561 0.619574 25.8252C0.88197 26.3481 1.66187 27.0383 2.20853 27.2265C3.27269 27.6099 5.12403 27.7633 7.85003 27.6936C10.6416 27.6239 11.6693 27.3868 12.5294 26.62C12.9449 26.2435 13.251 25.7624 13.4478 25.142C13.7321 24.2426 13.7685 23.5734 13.7394 19.3555C13.7102 15.5281 13.7029 15.3259 13.5571 14.81C13.4697 14.5172 13.3166 14.1268 13.2219 13.9386C12.7189 12.9974 11.3924 12.0214 9.16201 10.9547C7.44915 10.139 6.86605 9.7277 6.50161 9.10025L6.28295 8.72379V7.25974C6.28295 6.0676 6.30481 5.72599 6.40686 5.40529C6.61094 4.77087 6.92436 4.63144 7.1576 5.07065C7.4127 5.53775 7.48559 6.10942 7.48559 7.79656V9.45581H13.7685L13.7321 6.47195C13.7029 4.16434 13.6738 3.38352 13.5863 3.00705C13.1708 1.15957 12.318 0.406633 10.3282 0.113824C9.80342 0.0371365 5.60509 -0.0325797 4.78875 0.0162217Z"></path><path d="M34.6071 0.322857C31.6843 0.545949 30.6347 1.50106 30.3723 4.19211C30.3286 4.68012 30.2994 9.12802 30.2994 16.3715V27.7911H36.5678L36.5824 25.1558L36.6042 22.5275L37.0999 22.5066C37.406 22.4926 37.6392 22.5205 37.7048 22.5693C37.7923 22.6321 37.8069 23.0922 37.8069 25.2185V27.7911L40.9265 27.7771L44.0388 27.7562L44.0606 17.3336C44.0679 11.0243 44.0534 6.30451 44.0023 5.37729C43.9003 3.1882 43.6598 2.29583 42.9673 1.54289C42.3769 0.901502 41.7282 0.601722 40.5037 0.42046C39.6582 0.294971 35.8243 0.232226 34.6071 0.322857ZM37.3623 5.3006C37.4716 5.35637 37.6174 5.52369 37.683 5.6701C37.7996 5.9141 37.8069 6.39514 37.7923 11.7563L37.7704 17.5776H36.6042L36.5459 16.497C36.5168 15.9044 36.5022 13.2483 36.5095 10.606C36.5313 6.00473 36.5386 5.78861 36.6698 5.57249C36.7864 5.3982 36.9832 5.24483 37.1363 5.20997C37.1509 5.203 37.2456 5.24483 37.3623 5.3006Z"></path><path d="M15.2483 0.545948C15.2264 0.636579 15.2191 6.79253 15.2264 14.2313L15.2483 27.7562L18.3241 27.7771L21.4073 27.7911L21.4219 20.7358L21.4437 13.6735L21.9758 13.6526C22.3111 13.6387 22.5516 13.6666 22.6172 13.7154C22.7047 13.7851 22.7193 14.8587 22.7193 20.7916V27.7911H28.9876V0.392572H22.7193L22.7047 4.55463L22.6828 8.72367L22.1508 8.74458C21.8155 8.75852 21.5749 8.73064 21.5093 8.68184C21.4219 8.61212 21.4073 7.94284 21.4073 4.49886V0.392572H15.2847L15.2483 0.545948Z"></path><path d="M45.5328 27.7911H51.8012L51.8158 21.67L51.8376 15.5559L52.2239 15.5628C52.4353 15.5698 52.654 15.6116 52.7123 15.6604C52.982 15.8766 52.9965 16.1066 53.0184 22.0186L53.0476 27.7911H59.3086V22.2974C59.3086 19.1532 59.2722 16.5249 59.2357 16.1485C59.1556 15.4095 58.9442 14.6007 58.7255 14.1964C58.5433 13.8618 57.8509 13.1367 57.5156 12.9415C57.2313 12.7672 57.2022 12.6905 57.4135 12.6278C57.4937 12.5999 57.7561 12.4117 57.9893 12.2095C58.536 11.7215 58.9004 11.0452 59.0972 10.1529C59.2867 9.2814 59.3669 6.46486 59.243 4.72892C59.1118 2.8675 58.8421 2.08668 58.1133 1.45923C57.6395 1.05488 57.1876 0.838756 56.4441 0.671437C55.3727 0.434402 54.4543 0.392572 49.9353 0.392572H45.5328V27.7911ZM52.6321 5.3494C52.9674 5.4958 52.9965 5.67707 53.0257 7.53152C53.0549 9.58118 53.0184 9.78335 52.5228 9.97159C52.1802 10.104 52.0053 10.111 51.8887 9.99948C51.7866 9.90187 51.7575 5.33546 51.8595 5.24482C51.9251 5.18208 52.3843 5.24482 52.6321 5.3494Z"></path><path d="M60.8394 27.7911H67.0348V21.9558C67.0348 18.7489 67.064 16.1485 67.0931 16.1903C67.1296 16.2251 67.2608 17.0826 67.392 18.1005C67.5232 19.1184 67.7054 20.3733 67.8002 20.8892C68.6384 25.602 69.0247 27.6935 69.0538 27.7353C69.0684 27.7702 70.4606 27.7911 72.1443 27.7911C74.7682 27.7911 75.1983 27.7771 75.1983 27.6865C75.1983 27.6307 74.36 24.2983 73.3396 20.2826C72.3192 16.267 71.4227 12.7393 71.3498 12.4395L71.2113 11.9097L71.4154 11.2544C71.5247 10.8988 72.0495 9.17682 72.5743 7.43392C73.1064 5.69101 73.7769 3.46009 74.0758 2.48406C74.3746 1.50803 74.6152 0.64355 74.6152 0.552919V0.392572H68.5072L68.3833 1.03396C68.3177 1.38951 68.1063 2.4492 67.9095 3.39037C67.7127 4.33154 67.4649 5.77467 67.3628 6.59732C67.2535 7.41997 67.1369 8.12411 67.1004 8.15897C67.064 8.2008 67.0348 6.62521 67.0348 4.31063V0.392572H60.8394V27.7911Z"></path><path d="M22.5442 29.3318C22.1506 29.3667 21.4946 29.4573 21.0937 29.541C18.9581 29.9523 18.0033 30.8237 17.5295 32.7828L17.3692 33.473L17.3254 60H25.5617L25.5763 57.051L25.5982 54.109L26.3562 54.0881C26.8446 54.0741 27.1434 54.095 27.209 54.1508C27.2965 54.2135 27.3111 54.7295 27.3111 57.1137V60H35.5474V47.6393C35.5474 39.7056 35.5182 34.944 35.4672 34.3235C35.387 33.2568 35.1465 32.2181 34.8404 31.6324C34.5415 31.0468 33.7325 30.2799 33.1129 29.9871C31.8665 29.4085 31.0283 29.3109 26.7644 29.29C24.8402 29.276 22.9451 29.2969 22.5442 29.3318ZM26.8008 34.8673C26.9175 34.93 27.0778 35.0764 27.1434 35.2019C27.2673 35.4111 27.2746 35.8433 27.2746 41.9783V48.5317L26.5166 48.5526C26.072 48.5665 25.7294 48.5456 25.6711 48.4968C25.5982 48.441 25.569 47.0885 25.5253 42.2363C25.4962 38.8341 25.4962 35.9061 25.5253 35.7178C25.6419 34.9649 26.225 34.5814 26.8008 34.8673Z"></path><path d="M0.12403 34.693H1.93164C3.24362 34.693 3.76112 34.7139 3.82672 34.7766C3.89232 34.8394 3.91419 37.7466 3.91419 47.4302V60H12.2234L12.2598 34.7279L14.1403 34.7069L16.0135 34.693V29.3946H0.12403V34.693Z"></path><path d="M37.0051 60H44.0023V53.2584C44.0023 49.3474 44.0315 46.5448 44.0679 46.5866C44.1044 46.6214 44.221 47.2419 44.323 47.9739C44.6583 50.2746 44.8843 51.4946 45.1758 52.7146C45.3362 53.363 45.7808 55.2454 46.1525 56.8837C46.5315 58.522 46.8595 59.8954 46.8814 59.9373C46.9105 59.9721 48.5578 60 51.1161 60H55.2999V29.3946H48.0111V36.2895C48.0111 40.089 47.982 43.2054 47.9528 43.2263C47.9164 43.2472 47.8289 42.8289 47.7633 42.306C47.4718 40.1866 47.1292 38.2834 46.8085 36.9588C46.4878 35.6202 45.0956 29.5131 45.0956 29.4364C45.0956 29.4085 43.2734 29.3946 41.0504 29.3946H37.0051V60Z"></path><path d="M56.9034 60H65.1397V53.1887C65.1397 49.445 65.1689 46.4053 65.198 46.4472C65.2345 46.482 65.4167 47.5417 65.6135 48.8105C65.803 50.0724 66.1675 52.1011 66.4299 53.3072C67.1441 56.6745 67.8366 59.9512 67.8366 59.9791C67.8366 59.993 69.6733 60 71.9183 60C75.2493 60 76 59.9861 76 59.9094C76 59.8118 75.9125 59.505 75.5918 58.4732L75.4096 57.8946L74.8119 57.9085C73.879 57.9434 73.6676 57.9225 73.6166 57.797C73.5947 57.7342 73.653 57.6087 73.7769 57.4902C73.9008 57.3647 74.0102 57.1416 74.0758 56.8837C74.2507 56.1656 74.36 56.2214 72.8512 56.2423C71.5028 56.2562 71.1894 56.2144 71.1894 55.9983C71.1894 55.8728 72.2536 54.9874 72.4722 54.9386C72.567 54.9177 72.6472 54.8549 72.6472 54.8131C72.6472 54.7295 72.013 54.604 70.65 54.4157C70.3804 54.3739 70.0669 54.3112 69.9649 54.2763C69.7827 54.2066 69.79 54.2066 70.2492 53.8789C70.5043 53.7046 71.0291 53.3979 71.4081 53.2027C72.2754 52.7635 72.3192 52.6589 71.6486 52.5404C71.0947 52.4428 69.4109 52.0872 68.9736 51.9757L68.6967 51.9059L68.9007 51.6898C69.0174 51.5783 69.2579 51.404 69.4401 51.2994C70.1398 50.909 70.6063 50.5813 70.6063 50.4628C70.6063 50.3652 70.3293 50.2537 69.3235 49.933C68.4853 49.668 68.0625 49.5077 68.1136 49.4589C68.15 49.424 68.7331 49.0545 69.4109 48.6502C70.0888 48.2389 70.65 47.8554 70.6646 47.7927C70.6792 47.702 70.5917 47.6672 70.1908 47.6254C69.462 47.5487 68.2083 47.3395 68.1427 47.2838C68.1136 47.2559 68.1792 47.1652 68.2812 47.0816C69.7827 45.8755 69.8847 45.7709 69.6442 45.5896C69.5713 45.5339 68.3978 45.0668 67.5669 44.7531C67.5159 44.7321 67.4721 44.6903 67.4721 44.6624C67.4721 44.5927 68.3905 44.2999 69.2215 44.1047C69.564 44.028 70.0961 43.8746 70.4095 43.777C70.9489 43.6027 70.9707 43.5818 70.9707 43.3796C70.9707 43.1984 70.8396 43.038 70.169 42.3966L69.3672 41.6298L70.3148 41.1417C71.1603 40.7095 71.2696 40.6398 71.3425 40.4167C71.4372 40.1378 71.4445 40.1518 70.7594 39.7474L70.3658 39.5174L71.0874 39.2943C71.481 39.1757 71.8162 39.0642 71.8235 39.0572C71.86 39.0224 75.2711 29.527 75.2711 29.4643C75.2711 29.4224 73.7478 29.3946 71.204 29.3946H67.1369L66.8599 30.5937C66.7068 31.256 66.4517 32.3017 66.2914 32.9152C65.9196 34.3514 65.9123 34.3862 65.5698 36.6102C65.4094 37.642 65.2491 38.5204 65.2126 38.5553C65.1616 38.6041 65.1397 36.9727 65.1397 34.0098V29.3946H56.9034V60Z"></path></svg>